<?xml version="1.0" encoding="utf-8"?>
<!-- Generator: Adobe Illustrator 22.0.0, SVG Export Plug-In . SVG Version: 6.00 Build 0)  -->
<svg version="1.1" id="Layer_1" xmlns="http://www.w3.org/2000/svg" xmlns:xlink="http://www.w3.org/1999/xlink" x="0px" y="0px"
	 viewBox="0 0 699.3 974.2" style="enable-background:new 0 0 699.3 974.2;" xml:space="preserve">
<style type="text/css">
	.st0{fill:#2269AC;}
</style>
<title>LOGO</title>
<g>
	<path d="M371.6,690c-43.1,3.7-95,8.2-133.7,8.9v1.3c36.7,9.4,75.7,21,119,35.4l152.2,49.9l1,30.4l-146,54.9
		c-43.2,16.1-82.8,29.8-119.3,39.8v1c38.6-0.3,90.7,0.3,137.3,1.5l133.2,4l1.2,38.1l-310.7-11.7l-1.6-51l148.3-57.7
		c37.8-14.1,71.5-25.7,103.4-34.6v-1.3c-31.5-6.8-65.9-16.7-105.5-29.3L198.5,719l31-54.2l276.7-26.2l-18,18L371.6,690z"/>
	<path d="M197.3,333.2c-2.2-3.3-4.6-6.4-7.2-9.3c-1.9-2.2-4.3-3.8-7-4.9c-2.6-0.8-5.5-0.8-8.1,0.1c-3.7,1.2-7.1,3.1-10.3,5.4
		c-2.7,1.8-5.9,4.2-9.5,7.2c-3.7,3-7.4,6.1-11.1,9.7l-8.2-9.2c9.7-11.2,18.4-20.6,25.8-27.9c6.1-6.1,12.6-11.7,19.6-16.7
		c5.3-3.7,9.9-5.8,13.7-6.3c3.7-0.6,7.4,0.1,10.6,1.9c3.7,2.2,6.8,5.2,9.4,8.6c3,3.8,6.3,8.4,9.9,13.5c0.2,0.3,2,3,5.4,8.1
		c3.4,5.1,7.8,11.8,13.3,20.2s11.9,18.2,19.1,29.3s14.9,22.9,23,35.4c8.1,12.5,16.3,25.3,24.7,38.5c8.4,13.3,16.5,26.1,24.3,38.7
		c7.8,12.6,15.1,24.6,21.9,35.9c6.8,11.3,12.7,21.3,17.5,30.1c6.9-6.4,13.6-12.3,20.2-17.6c6.5-5.3,12.7-9.9,18.5-13.9
		c8.4-5.7,16.2-10.9,23.7-15.4c7.5-4.5,14.7-9.2,21.7-14c4.5-3,8.5-6.8,11.6-11.2c2.9-4.2,4.5-9.2,4.6-14.4c0.3-5.5-0.9-12-3.4-19.5
		c-2.5-7.5-6.5-16.3-12.2-26.5l11.1-6.4c9.7,14.2,16.9,26.5,21.5,36.7c4.6,10.2,7.3,19.1,7.9,26.5s-0.6,13.6-3.6,18.7
		c-3.3,5.4-7.7,10-12.9,13.5c-4.8,3.3-9.8,6.1-15,8.6c-5.7,2.8-11.9,5.7-18.7,8.9c-6.8,3.2-14,6.8-21.6,11
		c-8.2,4.4-16.1,9.3-23.8,14.6c-10.1,7-16.1,11.1-22.9,17.9c-7.7,7.8-14.2,16.6-19.3,26.3c-4.4,51.5-6.8,63.3-8.3,63.3
		c-3-0.1,7-53.1-19-103.5c-3.3-6.4-10.4-18.1-24.8-41.3c-8.7-14.1-17.9-28.5-27.3-43.2c-9.4-14.7-18.8-29.5-28.4-44
		c-9.6-14.5-19.2-28.7-28.8-42.8C215.5,359.5,206.3,346.1,197.3,333.2z"/>
	<path class="st0" d="M342.7,19.2C157.2,23,9.9,176.6,13.8,362.1S171.2,694.8,356.7,691c185.5-3.8,332.7-157.4,328.9-342.9
		S528.2,15.3,342.7,19.2z M350.6,641.2C185.5,641.7,51.2,504.2,50.5,334C49.8,163.7,183.1,25.4,348.1,24.9
		c165-0.6,299.3,137,300,307.2C648.7,502.2,515.5,640.6,350.6,641.2L350.6,641.2z"/>
</g>
</svg>
